<mxfile host="app.diagrams.net" modified="2021-11-04T15:29:53.216Z" agent="5.0 (Windows NT 10.0; Win64; x64) AppleWebKit/537.36 (KHTML, like Gecko) Chrome/94.0.4606.81 Safari/537.36 OPR/80.0.4170.61" etag="Igpvv2aHa-TFy8IkMQDT" version="15.6.8" type="github">
  <diagram id="5A16Di9qTaFqqGjKFADZ" name="Page-1">
    <mxGraphModel dx="1625" dy="926" grid="1" gridSize="10" guides="1" tooltips="1" connect="1" arrows="1" fold="1" page="1" pageScale="1" pageWidth="850" pageHeight="1100" math="0" shadow="0">
      <root>
        <mxCell id="0" />
        <mxCell id="1" parent="0" />
        <mxCell id="8GRmsvqqBEpGyDaY1sa5-1" value="Вход" style="strokeWidth=1;html=1;shape=mxgraph.flowchart.terminator;whiteSpace=wrap;" vertex="1" parent="1">
          <mxGeometry x="360" y="20" width="120" height="50" as="geometry" />
        </mxCell>
        <mxCell id="8GRmsvqqBEpGyDaY1sa5-2" style="edgeStyle=orthogonalEdgeStyle;rounded=0;orthogonalLoop=1;jettySize=auto;html=1;entryX=0.5;entryY=0;entryDx=0;entryDy=0;endArrow=none;endFill=0;" edge="1" parent="1" target="8GRmsvqqBEpGyDaY1sa5-4">
          <mxGeometry relative="1" as="geometry">
            <mxPoint x="420" y="70" as="sourcePoint" />
          </mxGeometry>
        </mxCell>
        <mxCell id="8GRmsvqqBEpGyDaY1sa5-3" style="edgeStyle=orthogonalEdgeStyle;rounded=0;orthogonalLoop=1;jettySize=auto;html=1;entryX=0.5;entryY=0;entryDx=0;entryDy=0;endArrow=none;endFill=0;" edge="1" parent="1" source="8GRmsvqqBEpGyDaY1sa5-4" target="8GRmsvqqBEpGyDaY1sa5-6">
          <mxGeometry relative="1" as="geometry" />
        </mxCell>
        <mxCell id="8GRmsvqqBEpGyDaY1sa5-4" value="Ввод n" style="shape=parallelogram;perimeter=parallelogramPerimeter;whiteSpace=wrap;html=1;fixedSize=1;strokeWidth=1;" vertex="1" parent="1">
          <mxGeometry x="350" y="90" width="140" height="50" as="geometry" />
        </mxCell>
        <mxCell id="8GRmsvqqBEpGyDaY1sa5-5" value="" style="edgeStyle=orthogonalEdgeStyle;rounded=0;orthogonalLoop=1;jettySize=auto;html=1;endArrow=none;endFill=0;" edge="1" parent="1" source="8GRmsvqqBEpGyDaY1sa5-6">
          <mxGeometry relative="1" as="geometry">
            <mxPoint x="420" y="230" as="targetPoint" />
          </mxGeometry>
        </mxCell>
        <mxCell id="8GRmsvqqBEpGyDaY1sa5-6" value="А1&lt;br&gt;i := 1&lt;br&gt;i &amp;lt; n" style="shape=loopLimit;whiteSpace=wrap;html=1;strokeWidth=1;" vertex="1" parent="1">
          <mxGeometry x="360" y="160" width="120" height="50" as="geometry" />
        </mxCell>
        <mxCell id="8GRmsvqqBEpGyDaY1sa5-7" value="" style="edgeStyle=orthogonalEdgeStyle;rounded=0;orthogonalLoop=1;jettySize=auto;html=1;endArrow=none;endFill=0;" edge="1" parent="1" source="8GRmsvqqBEpGyDaY1sa5-8">
          <mxGeometry relative="1" as="geometry">
            <mxPoint x="420" y="300" as="targetPoint" />
          </mxGeometry>
        </mxCell>
        <mxCell id="8GRmsvqqBEpGyDaY1sa5-8" value="А2&lt;br&gt;j := i&lt;br&gt;j &amp;lt; n - i - 1" style="shape=loopLimit;whiteSpace=wrap;html=1;strokeWidth=1;" vertex="1" parent="1">
          <mxGeometry x="360" y="230" width="120" height="50" as="geometry" />
        </mxCell>
        <mxCell id="8GRmsvqqBEpGyDaY1sa5-9" style="edgeStyle=orthogonalEdgeStyle;rounded=0;orthogonalLoop=1;jettySize=auto;html=1;entryX=0.5;entryY=0;entryDx=0;entryDy=0;endArrow=none;endFill=0;exitX=0.5;exitY=1;exitDx=0;exitDy=0;" edge="1" parent="1" source="8GRmsvqqBEpGyDaY1sa5-15" target="8GRmsvqqBEpGyDaY1sa5-13">
          <mxGeometry relative="1" as="geometry">
            <mxPoint x="430" y="430" as="sourcePoint" />
          </mxGeometry>
        </mxCell>
        <mxCell id="8GRmsvqqBEpGyDaY1sa5-11" style="edgeStyle=orthogonalEdgeStyle;rounded=0;orthogonalLoop=1;jettySize=auto;html=1;endArrow=open;endFill=0;entryX=0.5;entryY=0;entryDx=0;entryDy=0;" edge="1" parent="1" source="8GRmsvqqBEpGyDaY1sa5-13" target="8GRmsvqqBEpGyDaY1sa5-17">
          <mxGeometry relative="1" as="geometry">
            <mxPoint x="580" y="500" as="targetPoint" />
            <Array as="points">
              <mxPoint x="560" y="465" />
            </Array>
          </mxGeometry>
        </mxCell>
        <mxCell id="8GRmsvqqBEpGyDaY1sa5-12" style="edgeStyle=orthogonalEdgeStyle;rounded=0;orthogonalLoop=1;jettySize=auto;html=1;entryX=0.5;entryY=1;entryDx=0;entryDy=0;endArrow=none;endFill=0;" edge="1" parent="1" source="8GRmsvqqBEpGyDaY1sa5-13" target="8GRmsvqqBEpGyDaY1sa5-19">
          <mxGeometry relative="1" as="geometry" />
        </mxCell>
        <mxCell id="8GRmsvqqBEpGyDaY1sa5-13" value="res = n" style="rhombus;whiteSpace=wrap;html=1;" vertex="1" parent="1">
          <mxGeometry x="360" y="440" width="120" height="50" as="geometry" />
        </mxCell>
        <mxCell id="8GRmsvqqBEpGyDaY1sa5-14" value="" style="edgeStyle=orthogonalEdgeStyle;rounded=0;orthogonalLoop=1;jettySize=auto;html=1;endArrow=none;endFill=0;" edge="1" parent="1">
          <mxGeometry relative="1" as="geometry">
            <mxPoint x="420" y="370" as="targetPoint" />
            <mxPoint x="420" y="350" as="sourcePoint" />
          </mxGeometry>
        </mxCell>
        <mxCell id="8GRmsvqqBEpGyDaY1sa5-15" value="res := i + j + k" style="rounded=0;whiteSpace=wrap;html=1;" vertex="1" parent="1">
          <mxGeometry x="360" y="370" width="120" height="50" as="geometry" />
        </mxCell>
        <mxCell id="8GRmsvqqBEpGyDaY1sa5-16" style="edgeStyle=orthogonalEdgeStyle;rounded=0;orthogonalLoop=1;jettySize=auto;html=1;endArrow=open;endFill=0;strokeWidth=1;" edge="1" parent="1" source="8GRmsvqqBEpGyDaY1sa5-17">
          <mxGeometry relative="1" as="geometry">
            <mxPoint x="420" y="560" as="targetPoint" />
            <Array as="points">
              <mxPoint x="560" y="560" />
            </Array>
          </mxGeometry>
        </mxCell>
        <mxCell id="8GRmsvqqBEpGyDaY1sa5-17" value="Вывод i, j. k" style="shape=parallelogram;perimeter=parallelogramPerimeter;whiteSpace=wrap;html=1;fixedSize=1;strokeWidth=1;" vertex="1" parent="1">
          <mxGeometry x="490" y="490" width="140" height="50" as="geometry" />
        </mxCell>
        <mxCell id="8GRmsvqqBEpGyDaY1sa5-18" style="edgeStyle=orthogonalEdgeStyle;rounded=0;orthogonalLoop=1;jettySize=auto;html=1;entryX=0.5;entryY=1;entryDx=0;entryDy=0;endArrow=none;endFill=0;" edge="1" parent="1" source="8GRmsvqqBEpGyDaY1sa5-19" target="8GRmsvqqBEpGyDaY1sa5-20">
          <mxGeometry relative="1" as="geometry" />
        </mxCell>
        <mxCell id="8GRmsvqqBEpGyDaY1sa5-19" value="A2" style="shape=loopLimit;whiteSpace=wrap;html=1;strokeWidth=1;direction=west;" vertex="1" parent="1">
          <mxGeometry x="360" y="650" width="120" height="50" as="geometry" />
        </mxCell>
        <mxCell id="8GRmsvqqBEpGyDaY1sa5-20" value="A1" style="shape=loopLimit;whiteSpace=wrap;html=1;strokeWidth=1;direction=west;" vertex="1" parent="1">
          <mxGeometry x="360" y="720" width="120" height="50" as="geometry" />
        </mxCell>
        <mxCell id="8GRmsvqqBEpGyDaY1sa5-21" style="edgeStyle=orthogonalEdgeStyle;rounded=0;orthogonalLoop=1;jettySize=auto;html=1;entryX=0.5;entryY=0;entryDx=0;entryDy=0;entryPerimeter=0;fontFamily=Times New Roman;endArrow=none;endFill=0;" edge="1" parent="1" target="8GRmsvqqBEpGyDaY1sa5-22">
          <mxGeometry relative="1" as="geometry">
            <mxPoint x="420" y="770" as="sourcePoint" />
          </mxGeometry>
        </mxCell>
        <mxCell id="8GRmsvqqBEpGyDaY1sa5-22" value="Выход" style="strokeWidth=1;html=1;shape=mxgraph.flowchart.terminator;whiteSpace=wrap;" vertex="1" parent="1">
          <mxGeometry x="360" y="790" width="120" height="50" as="geometry" />
        </mxCell>
        <mxCell id="8GRmsvqqBEpGyDaY1sa5-23" value="Нет" style="text;html=1;strokeColor=none;fillColor=none;align=center;verticalAlign=middle;whiteSpace=wrap;rounded=0;fontFamily=Times New Roman;" vertex="1" parent="1">
          <mxGeometry x="420" y="480" width="60" height="30" as="geometry" />
        </mxCell>
        <mxCell id="8GRmsvqqBEpGyDaY1sa5-24" value="Да" style="text;html=1;strokeColor=none;fillColor=none;align=center;verticalAlign=middle;whiteSpace=wrap;rounded=0;fontFamily=Times New Roman;" vertex="1" parent="1">
          <mxGeometry x="460" y="430" width="60" height="30" as="geometry" />
        </mxCell>
        <mxCell id="8GRmsvqqBEpGyDaY1sa5-49" value="А3&lt;br&gt;k := j&lt;br&gt;k &amp;lt; n - i - j" style="shape=loopLimit;whiteSpace=wrap;html=1;strokeWidth=1;" vertex="1" parent="1">
          <mxGeometry x="360" y="300" width="120" height="50" as="geometry" />
        </mxCell>
        <mxCell id="8GRmsvqqBEpGyDaY1sa5-56" value="A3" style="shape=loopLimit;whiteSpace=wrap;html=1;strokeWidth=1;direction=west;" vertex="1" parent="1">
          <mxGeometry x="360" y="580" width="120" height="50" as="geometry" />
        </mxCell>
        <mxCell id="8GRmsvqqBEpGyDaY1sa5-57" value="Вход" style="strokeWidth=1;html=1;shape=mxgraph.flowchart.terminator;whiteSpace=wrap;" vertex="1" parent="1">
          <mxGeometry x="1190" y="30" width="120" height="50" as="geometry" />
        </mxCell>
        <mxCell id="8GRmsvqqBEpGyDaY1sa5-58" style="edgeStyle=orthogonalEdgeStyle;rounded=0;orthogonalLoop=1;jettySize=auto;html=1;entryX=0.5;entryY=0;entryDx=0;entryDy=0;endArrow=none;endFill=0;" edge="1" parent="1" target="8GRmsvqqBEpGyDaY1sa5-60">
          <mxGeometry relative="1" as="geometry">
            <mxPoint x="1250" y="80" as="sourcePoint" />
          </mxGeometry>
        </mxCell>
        <mxCell id="8GRmsvqqBEpGyDaY1sa5-59" style="edgeStyle=orthogonalEdgeStyle;rounded=0;orthogonalLoop=1;jettySize=auto;html=1;entryX=0.5;entryY=0;entryDx=0;entryDy=0;endArrow=none;endFill=0;" edge="1" parent="1" source="8GRmsvqqBEpGyDaY1sa5-60" target="8GRmsvqqBEpGyDaY1sa5-62">
          <mxGeometry relative="1" as="geometry" />
        </mxCell>
        <mxCell id="8GRmsvqqBEpGyDaY1sa5-60" value="Ввод n" style="shape=parallelogram;perimeter=parallelogramPerimeter;whiteSpace=wrap;html=1;fixedSize=1;strokeWidth=1;" vertex="1" parent="1">
          <mxGeometry x="1180" y="100" width="140" height="50" as="geometry" />
        </mxCell>
        <mxCell id="8GRmsvqqBEpGyDaY1sa5-61" value="" style="edgeStyle=orthogonalEdgeStyle;rounded=0;orthogonalLoop=1;jettySize=auto;html=1;endArrow=none;endFill=0;" edge="1" parent="1" source="8GRmsvqqBEpGyDaY1sa5-62">
          <mxGeometry relative="1" as="geometry">
            <mxPoint x="1250" y="240" as="targetPoint" />
          </mxGeometry>
        </mxCell>
        <mxCell id="8GRmsvqqBEpGyDaY1sa5-62" value="А1&lt;br&gt;i := 1&lt;br&gt;i &amp;lt; n" style="shape=loopLimit;whiteSpace=wrap;html=1;strokeWidth=1;" vertex="1" parent="1">
          <mxGeometry x="1190" y="170" width="120" height="50" as="geometry" />
        </mxCell>
        <mxCell id="8GRmsvqqBEpGyDaY1sa5-63" value="" style="edgeStyle=orthogonalEdgeStyle;rounded=0;orthogonalLoop=1;jettySize=auto;html=1;endArrow=none;endFill=0;" edge="1" parent="1" source="8GRmsvqqBEpGyDaY1sa5-64">
          <mxGeometry relative="1" as="geometry">
            <mxPoint x="1250" y="310" as="targetPoint" />
          </mxGeometry>
        </mxCell>
        <mxCell id="8GRmsvqqBEpGyDaY1sa5-64" value="А2&lt;br&gt;j := 1&lt;br&gt;j &amp;lt; n" style="shape=loopLimit;whiteSpace=wrap;html=1;strokeWidth=1;" vertex="1" parent="1">
          <mxGeometry x="1190" y="240" width="120" height="50" as="geometry" />
        </mxCell>
        <mxCell id="8GRmsvqqBEpGyDaY1sa5-65" style="edgeStyle=orthogonalEdgeStyle;rounded=0;orthogonalLoop=1;jettySize=auto;html=1;entryX=0.5;entryY=0;entryDx=0;entryDy=0;endArrow=none;endFill=0;exitX=0.5;exitY=1;exitDx=0;exitDy=0;" edge="1" parent="1" source="8GRmsvqqBEpGyDaY1sa5-70" target="8GRmsvqqBEpGyDaY1sa5-68">
          <mxGeometry relative="1" as="geometry">
            <mxPoint x="1260" y="440" as="sourcePoint" />
          </mxGeometry>
        </mxCell>
        <mxCell id="8GRmsvqqBEpGyDaY1sa5-66" style="edgeStyle=orthogonalEdgeStyle;rounded=0;orthogonalLoop=1;jettySize=auto;html=1;endArrow=open;endFill=0;entryX=0.5;entryY=0;entryDx=0;entryDy=0;" edge="1" parent="1" source="8GRmsvqqBEpGyDaY1sa5-68" target="8GRmsvqqBEpGyDaY1sa5-72">
          <mxGeometry relative="1" as="geometry">
            <mxPoint x="1410" y="510" as="targetPoint" />
            <Array as="points">
              <mxPoint x="1390" y="475" />
            </Array>
          </mxGeometry>
        </mxCell>
        <mxCell id="8GRmsvqqBEpGyDaY1sa5-67" style="edgeStyle=orthogonalEdgeStyle;rounded=0;orthogonalLoop=1;jettySize=auto;html=1;entryX=0.5;entryY=1;entryDx=0;entryDy=0;endArrow=none;endFill=0;" edge="1" parent="1" source="8GRmsvqqBEpGyDaY1sa5-68" target="8GRmsvqqBEpGyDaY1sa5-74">
          <mxGeometry relative="1" as="geometry" />
        </mxCell>
        <mxCell id="8GRmsvqqBEpGyDaY1sa5-68" value="res = n" style="rhombus;whiteSpace=wrap;html=1;" vertex="1" parent="1">
          <mxGeometry x="1190" y="450" width="120" height="50" as="geometry" />
        </mxCell>
        <mxCell id="8GRmsvqqBEpGyDaY1sa5-69" value="" style="edgeStyle=orthogonalEdgeStyle;rounded=0;orthogonalLoop=1;jettySize=auto;html=1;endArrow=none;endFill=0;" edge="1" parent="1">
          <mxGeometry relative="1" as="geometry">
            <mxPoint x="1250" y="380" as="targetPoint" />
            <mxPoint x="1250" y="360" as="sourcePoint" />
          </mxGeometry>
        </mxCell>
        <mxCell id="8GRmsvqqBEpGyDaY1sa5-70" value="res := i + j + k" style="rounded=0;whiteSpace=wrap;html=1;" vertex="1" parent="1">
          <mxGeometry x="1190" y="380" width="120" height="50" as="geometry" />
        </mxCell>
        <mxCell id="8GRmsvqqBEpGyDaY1sa5-71" style="edgeStyle=orthogonalEdgeStyle;rounded=0;orthogonalLoop=1;jettySize=auto;html=1;endArrow=open;endFill=0;strokeWidth=1;" edge="1" parent="1" source="8GRmsvqqBEpGyDaY1sa5-72">
          <mxGeometry relative="1" as="geometry">
            <mxPoint x="1250" y="570" as="targetPoint" />
            <Array as="points">
              <mxPoint x="1390" y="570" />
            </Array>
          </mxGeometry>
        </mxCell>
        <mxCell id="8GRmsvqqBEpGyDaY1sa5-72" value="Вывод i, j. k" style="shape=parallelogram;perimeter=parallelogramPerimeter;whiteSpace=wrap;html=1;fixedSize=1;strokeWidth=1;" vertex="1" parent="1">
          <mxGeometry x="1320" y="500" width="140" height="50" as="geometry" />
        </mxCell>
        <mxCell id="8GRmsvqqBEpGyDaY1sa5-73" style="edgeStyle=orthogonalEdgeStyle;rounded=0;orthogonalLoop=1;jettySize=auto;html=1;entryX=0.5;entryY=1;entryDx=0;entryDy=0;endArrow=none;endFill=0;" edge="1" parent="1" source="8GRmsvqqBEpGyDaY1sa5-74" target="8GRmsvqqBEpGyDaY1sa5-75">
          <mxGeometry relative="1" as="geometry" />
        </mxCell>
        <mxCell id="8GRmsvqqBEpGyDaY1sa5-74" value="A2" style="shape=loopLimit;whiteSpace=wrap;html=1;strokeWidth=1;direction=west;" vertex="1" parent="1">
          <mxGeometry x="1190" y="660" width="120" height="50" as="geometry" />
        </mxCell>
        <mxCell id="8GRmsvqqBEpGyDaY1sa5-75" value="A1" style="shape=loopLimit;whiteSpace=wrap;html=1;strokeWidth=1;direction=west;" vertex="1" parent="1">
          <mxGeometry x="1190" y="730" width="120" height="50" as="geometry" />
        </mxCell>
        <mxCell id="8GRmsvqqBEpGyDaY1sa5-76" style="edgeStyle=orthogonalEdgeStyle;rounded=0;orthogonalLoop=1;jettySize=auto;html=1;entryX=0.5;entryY=0;entryDx=0;entryDy=0;entryPerimeter=0;fontFamily=Times New Roman;endArrow=none;endFill=0;" edge="1" parent="1" target="8GRmsvqqBEpGyDaY1sa5-77">
          <mxGeometry relative="1" as="geometry">
            <mxPoint x="1250" y="780" as="sourcePoint" />
          </mxGeometry>
        </mxCell>
        <mxCell id="8GRmsvqqBEpGyDaY1sa5-77" value="Выход" style="strokeWidth=1;html=1;shape=mxgraph.flowchart.terminator;whiteSpace=wrap;" vertex="1" parent="1">
          <mxGeometry x="1190" y="800" width="120" height="50" as="geometry" />
        </mxCell>
        <mxCell id="8GRmsvqqBEpGyDaY1sa5-78" value="Нет" style="text;html=1;strokeColor=none;fillColor=none;align=center;verticalAlign=middle;whiteSpace=wrap;rounded=0;fontFamily=Times New Roman;" vertex="1" parent="1">
          <mxGeometry x="1250" y="490" width="60" height="30" as="geometry" />
        </mxCell>
        <mxCell id="8GRmsvqqBEpGyDaY1sa5-79" value="Да" style="text;html=1;strokeColor=none;fillColor=none;align=center;verticalAlign=middle;whiteSpace=wrap;rounded=0;fontFamily=Times New Roman;" vertex="1" parent="1">
          <mxGeometry x="1290" y="440" width="60" height="30" as="geometry" />
        </mxCell>
        <mxCell id="8GRmsvqqBEpGyDaY1sa5-80" value="А3&lt;br&gt;k := 1&lt;br&gt;k &amp;lt; n" style="shape=loopLimit;whiteSpace=wrap;html=1;strokeWidth=1;" vertex="1" parent="1">
          <mxGeometry x="1190" y="310" width="120" height="50" as="geometry" />
        </mxCell>
        <mxCell id="8GRmsvqqBEpGyDaY1sa5-81" value="A3" style="shape=loopLimit;whiteSpace=wrap;html=1;strokeWidth=1;direction=west;" vertex="1" parent="1">
          <mxGeometry x="1190" y="590" width="120" height="50" as="geometry" />
        </mxCell>
      </root>
    </mxGraphModel>
  </diagram>
</mxfile>
